<svg xmlns="http://www.w3.org/2000/svg" width="256" height="256">
  <path fill="#FFB320" d="M86.798 140c0-6.383 5.174-11 11.557-11H185v-23h-52.864c-6.383 0-11.558-5.12-11.558-11.5 0-6.382 5.175-11.5 11.558-11.5H185v-9.44C185 53.92 169.554 38 149.916 38H46.794C27.154 38 11 53.92 11 73.56v82.228C11 175.428 27.155 192 46.794 192h103.122C169.554 192 185 175.43 185 155.788V151H98.354c-6.382 0-11.556-4.618-11.556-11zm108.82-34c6.38 0 11.556-5.12 11.556-11.5 0-6.382-5.176-11.5-11.557-11.5H185v23h10.617zm25.362 23H185v22h35.98c6.384 0 11.56-4.618 11.56-11 0-6.383-5.176-11-11.56-11zm15.53-23h-7.113c-6.38 0-11.557-5.12-11.557-11.5 0-6.382 5.176-11.5 11.557-11.5h7.112c6.38 0 11.553 5.118 11.553 11.5 0 6.38-5.173 11.5-11.557 11.5zm-128.364 81c-1.65 0-3.146 1.51-3.146 3.16v37.173c0 1.65 1.045 2.063 2.234.92l40.552-39.09c1.188-1.146.848-2.163-.803-2.163h-38.837z"/>
</svg>
