<svg xmlns="http://www.w3.org/2000/svg" width="600" height="250" viewBox="0 0 600 250"><path fill="#FFB320" d="M127.384 130.375c0-5.237 4.246-9.025 9.482-9.025h71.092v-18.872h-43.374c-5.238 0-9.484-4.201-9.484-9.436 0-5.236 4.246-9.436 9.484-9.436h43.374V75.86c0-16.114-12.673-29.177-28.786-29.177H94.561c-16.114 0-29.369 13.062-29.369 29.177v67.468c0 16.114 13.255 29.711 29.369 29.711h84.612c16.113 0 28.786-13.596 28.786-29.711V139.4h-71.093c-5.236 0-9.482-3.789-9.482-9.025zm89.287-27.897c5.234 0 9.481-4.201 9.481-9.436 0-5.236-4.247-9.436-9.482-9.436h-8.711v18.872h8.712zm20.81 18.871h-29.522V139.4h29.522c5.238 0 9.484-3.789 9.484-9.025 0-5.238-4.246-9.026-9.484-9.026zm12.742-18.871h-5.836c-5.234 0-9.482-4.201-9.482-9.436 0-5.236 4.247-9.436 9.482-9.436h5.835c5.235 0 9.48 4.2 9.48 9.436 0 5.235-4.245 9.436-9.483 9.436h.004zM144.9 168.938c-1.354 0-2.581 1.239-2.581 2.593v30.5c0 1.354.857 1.693 1.833.755l33.273-32.073c.975-.94.695-1.774-.66-1.774H144.9z"/><g fill="#4D4D4D"><path d="M322.833 147.48c1.76.8 3.146 1.2 4.16 1.2 1.013 0 1.8-.067 2.36-.2a3.416 3.416 0 0 0 1.48-.76c.906-.854 1.36-2.348 1.36-4.48v-44.4h7.52v42.08c0 4.746-.734 8.212-2.2 10.4-1.467 2.186-4.067 3.28-7.8 3.28-2.774 0-5.066-.507-6.88-1.52v-5.6zm9.201-65.36h7.84v6.96h-7.84v-6.96zM349.297 82.12h7.84v6.96h-7.84v-6.96zm.161 57.6V98.84h7.52v40.88h-7.52zM392.642 139.72l-12.24-15.2-6.16 6.4v8.8h-7.52v-57.6h7.52v39.52l18.24-22.8h8.24l-15.76 19.84 16.8 21.04h-9.12zM433.336 139.72l-12.24-15.2-6.16 6.4v8.8h-7.52v-57.6h7.52v39.52l18.24-22.8h8.239l-15.76 19.84 16.8 21.04h-9.119zM447.822 147.32c1.652.746 2.986 1.12 4 1.12 1.013 0 1.866-.094 2.561-.28.692-.188 1.412-.6 2.16-1.24 1.812-1.548 3.279-4.08 4.399-7.6l-15.92-40.48h8l11.76 30.16h.32l11.6-30.16h7.36l-15.28 39.28c-2.239 5.493-4.107 9.172-5.6 11.04-1.494 1.866-2.987 3.24-4.48 4.12s-3.253 1.32-5.279 1.32c-2.08 0-3.948-.374-5.601-1.12v-6.16zM523.535 120.76c0 6.454-1.84 11.44-5.52 14.96-3.36 3.2-7.788 4.8-13.28 4.8-5.494 0-9.92-1.6-13.28-4.8-3.68-3.52-5.52-8.506-5.52-14.96v-2.96c0-6.453 1.84-11.413 5.52-14.88 3.36-3.253 7.786-4.88 13.28-4.88 5.492 0 9.92 1.627 13.28 4.88 3.68 3.467 5.52 8.427 5.52 14.88v2.96zm-7.519-2.24c0-4.906-1.094-8.612-3.28-11.12-1.92-2.24-4.588-3.36-8-3.36-5.28 0-8.747 2.614-10.4 7.84-.587 1.867-.88 4.08-.88 6.64v1.52c0 4.908 1.093 8.614 3.28 11.12 1.92 2.24 4.586 3.36 8 3.36 5.28 0 8.746-2.64 10.4-7.92.586-1.812.88-4 .88-6.56v-1.52z"/></g></svg>