<svg xmlns="http://www.w3.org/2000/svg" width="370" height="120" viewBox="-16.75 -6.561 370 120"><path fill="#FFB320" d="M64.584 55.946c0-2.442 1.98-4.209 4.423-4.209h33.159v-8.802h-20.23c-2.443 0-4.423-1.959-4.423-4.401s1.98-4.401 4.423-4.401h20.23V30.52c0-7.516-5.911-13.609-13.427-13.609H49.274c-7.516 0-13.698 6.093-13.698 13.609v31.468c0 7.517 6.182 13.858 13.698 13.858H88.74c7.516 0 13.426-6.34 13.426-13.858v-1.832H69.007c-2.443 0-4.423-1.768-4.423-4.21zm41.645-13.011c2.441 0 4.422-1.959 4.422-4.401s-1.981-4.401-4.423-4.401h-4.063v8.802h4.064zm9.707 8.802h-13.77v8.419h13.77c2.443 0 4.424-1.768 4.424-4.209-.001-2.444-1.981-4.21-4.424-4.21zm5.943-8.802h-2.722c-2.442 0-4.423-1.959-4.423-4.401s1.981-4.401 4.423-4.401h2.721c2.442 0 4.422 1.959 4.422 4.401s-1.98 4.401-4.423 4.401h.002zM72.754 73.933c-.632 0-1.204.578-1.204 1.211v14.225c0 .631.4.79.855.353l15.52-14.959c.455-.439.324-.828-.308-.828l-14.863-.002z"/><path fill="#4D4D4D" d="M155.604 69.524c1.273.579 2.277.868 3.012.868.733 0 1.303-.048 1.709-.144a2.467 2.467 0 0 0 1.071-.551c.656-.618.985-1.7.985-3.244V34.306h5.444v30.469c0 3.437-.532 5.946-1.593 7.53-1.062 1.583-2.945 2.375-5.648 2.375-2.008 0-3.668-.367-4.98-1.1v-4.056zm6.662-47.324h5.676v5.04h-5.676V22.2zm12.499 0h5.677v5.04h-5.677V22.2zm.116 41.705v-29.6h5.445v29.6h-5.445zm31.268 0L197.287 52.9l-4.461 4.634v6.372h-5.444V22.2h5.444v28.615l13.207-16.509h5.966l-11.411 14.366 12.164 15.234h-6.603v-.001zm29.464 0L226.751 52.9l-4.46 4.634v6.372h-5.445V22.2h5.445v28.615l13.207-16.509h5.966l-11.411 14.366 12.164 15.234h-6.604zm10.49 5.504c1.196.54 2.162.81 2.896.81.733 0 1.351-.068 1.854-.202.502-.136 1.022-.434 1.564-.898 1.312-1.121 2.374-2.954 3.186-5.502l-11.527-29.311h5.792l8.516 21.838h.231l8.398-21.838h5.33l-11.064 28.441c-1.62 3.978-2.974 6.641-4.055 7.994-1.082 1.351-2.162 2.346-3.243 2.982-1.081.638-2.355.956-3.822.956-1.507 0-2.859-.27-4.056-.81v-4.46zm54.821-19.232c0 4.673-1.333 8.284-3.998 10.832-2.433 2.317-5.639 3.475-9.615 3.475-3.979 0-7.183-1.158-9.615-3.475-2.664-2.548-3.998-6.159-3.998-10.832v-2.143c0-4.672 1.334-8.264 3.998-10.774 2.433-2.355 5.637-3.534 9.615-3.534 3.977 0 7.183 1.178 9.615 3.534 2.665 2.51 3.998 6.102 3.998 10.774v2.143zm-5.445-1.621c0-3.552-.792-6.236-2.374-8.052-1.391-1.622-3.322-2.433-5.793-2.433-3.823 0-6.334 1.892-7.53 5.676-.426 1.352-.638 2.954-.638 4.808v1.101c0 3.554.792 6.237 2.376 8.051 1.39 1.622 3.32 2.433 5.792 2.433 3.823 0 6.333-1.912 7.529-5.734.425-1.312.638-2.896.638-4.75v-1.1z"/></svg>